<svg id="svg" version="1.1" xmlns="http://www.w3.org/2000/svg" xmlns:xlink="http://www.w3.org/1999/xlink" width="400" height="400" viewBox="0, 0, 400,400"><g id="svgg"><path id="path0" d="M139.917 169.282 C 139.590 169.358,138.421 169.677,136.083 170.329 C 135.442 170.508,134.354 170.807,133.667 170.994 C 132.319 171.361,130.377 171.895,126.458 172.977 C 124.016 173.651,122.747 173.999,121.500 174.339 C 120.813 174.526,119.688 174.834,119.000 175.024 C 118.313 175.213,117.263 175.503,116.667 175.667 C 116.071 175.831,115.021 176.122,114.333 176.314 C 113.646 176.506,112.521 176.815,111.833 177.000 C 110.547 177.346,109.130 177.734,106.875 178.356 C 102.956 179.438,101.015 179.972,99.667 180.339 C 98.979 180.526,97.892 180.824,97.250 181.001 C 96.608 181.178,95.521 181.478,94.833 181.667 C 94.146 181.856,93.021 182.166,92.333 182.356 C 91.646 182.546,90.596 182.836,90.000 183.000 C 89.404 183.164,88.354 183.453,87.667 183.643 C 86.979 183.832,85.854 184.140,85.167 184.328 C 84.479 184.515,83.392 184.814,82.750 184.992 C 82.108 185.170,81.225 185.405,80.787 185.514 C 79.379 185.865,79.479 186.110,81.088 186.250 C 82.393 186.364,83.632 186.485,84.500 186.583 C 85.223 186.665,89.569 187.167,90.250 187.248 C 90.525 187.281,91.313 187.394,92.000 187.500 C 92.688 187.605,93.522 187.721,93.855 187.757 C 94.187 187.793,94.806 187.900,95.229 187.995 C 95.651 188.090,96.054 188.152,96.124 188.133 C 96.250 188.099,97.384 188.293,99.917 188.782 C 100.650 188.923,101.438 189.055,101.667 189.075 C 102.266 189.126,105.060 189.722,109.250 190.692 C 110.167 190.905,110.992 191.087,111.083 191.097 C 111.175 191.107,111.362 191.154,111.500 191.202 C 111.638 191.249,112.612 191.496,113.667 191.751 C 114.721 192.006,116.033 192.324,116.583 192.457 C 119.807 193.239,133.736 197.610,134.250 198.001 C 134.342 198.071,135.382 198.477,136.562 198.903 C 137.742 199.329,139.017 199.811,139.396 199.976 C 139.774 200.140,140.421 200.409,140.833 200.573 C 141.246 200.737,142.258 201.159,143.083 201.510 C 148.728 203.909,149.871 204.435,157.083 207.950 C 158.099 208.445,161.264 210.127,162.667 210.917 C 163.354 211.304,164.554 211.972,165.333 212.401 C 167.195 213.427,170.867 215.593,171.099 215.801 C 171.199 215.891,171.526 216.091,171.824 216.245 C 172.465 216.577,174.902 218.124,176.667 219.320 C 177.354 219.786,178.742 220.716,179.750 221.387 C 180.758 222.058,181.921 222.848,182.333 223.143 C 182.746 223.438,183.383 223.883,183.750 224.131 C 184.117 224.379,184.498 224.658,184.597 224.750 C 184.784 224.922,184.955 225.048,186.500 226.158 C 187.004 226.520,187.567 226.951,187.750 227.116 C 187.933 227.281,188.308 227.562,188.583 227.739 C 189.083 228.061,193.843 231.798,194.000 231.993 C 194.046 232.049,194.683 232.578,195.417 233.169 C 196.150 233.759,196.834 234.323,196.937 234.422 C 197.040 234.520,197.440 234.859,197.826 235.175 C 198.211 235.491,198.732 235.938,198.982 236.167 C 199.233 236.396,199.733 236.840,200.094 237.154 C 203.866 240.434,210.687 247.056,214.083 250.735 C 215.000 251.728,216.069 252.872,216.458 253.277 C 216.848 253.681,217.167 254.045,217.167 254.083 C 217.167 254.122,217.485 254.486,217.875 254.893 C 218.265 255.299,219.065 256.210,219.654 256.916 C 220.243 257.623,220.806 258.288,220.904 258.394 C 221.276 258.795,223.611 261.614,224.167 262.333 C 224.486 262.746,224.860 263.209,224.999 263.362 C 225.137 263.515,225.662 264.207,226.167 264.899 C 227.563 266.815,227.752 266.609,226.990 264.000 C 226.592 262.634,226.139 260.983,225.664 259.167 C 225.461 258.387,225.154 257.262,224.983 256.667 C 224.346 254.446,224.040 253.345,222.971 249.417 C 222.797 248.775,222.500 247.688,222.311 247.000 C 222.122 246.313,221.835 245.262,221.672 244.667 C 221.510 244.071,221.220 243.021,221.027 242.333 C 220.834 241.646,220.514 240.483,220.316 239.750 C 219.684 237.413,219.329 236.114,218.995 234.917 C 218.816 234.275,218.519 233.188,218.333 232.500 C 218.148 231.813,217.838 230.688,217.643 230.000 C 217.198 228.428,216.793 226.956,216.336 225.250 C 216.140 224.517,215.838 223.429,215.666 222.833 C 215.493 222.237,215.232 221.300,215.084 220.750 C 214.836 219.825,214.475 218.491,213.911 216.417 C 213.787 215.958,213.576 215.208,213.444 214.750 C 213.114 213.612,212.341 210.803,212.016 209.568 C 211.870 209.010,211.671 208.580,211.575 208.612 C 211.479 208.645,210.729 208.143,209.909 207.496 C 209.088 206.849,208.065 206.042,207.634 205.702 C 207.204 205.362,206.574 204.896,206.235 204.667 C 205.896 204.438,205.416 204.063,205.168 203.833 C 204.920 203.604,204.298 203.129,203.786 202.778 C 203.273 202.427,202.688 201.996,202.485 201.820 C 202.282 201.644,202.066 201.500,202.006 201.500 C 201.946 201.500,201.751 201.367,201.573 201.203 C 201.395 201.040,200.877 200.646,200.422 200.328 C 199.516 199.696,198.180 198.738,197.917 198.532 C 197.634 198.312,195.450 196.792,194.833 196.388 C 194.512 196.177,194.173 195.941,194.079 195.864 C 193.985 195.787,193.685 195.580,193.412 195.405 C 193.140 195.229,192.842 195.027,192.750 194.956 C 192.475 194.740,189.295 192.667,189.241 192.667 C 189.213 192.667,188.529 192.231,187.720 191.698 C 186.912 191.165,185.814 190.472,185.281 190.156 C 184.748 189.841,183.944 189.358,183.494 189.083 C 177.805 185.601,165.542 179.284,161.333 177.668 C 161.012 177.545,160.675 177.391,160.583 177.326 C 160.492 177.260,159.704 176.924,158.833 176.578 C 157.962 176.232,157.175 175.893,157.083 175.825 C 156.992 175.756,156.209 175.428,155.344 175.094 C 154.478 174.761,153.691 174.429,153.594 174.356 C 153.496 174.283,152.742 173.978,151.917 173.678 C 151.092 173.378,150.117 172.998,149.750 172.833 C 149.383 172.669,148.108 172.183,146.917 171.754 C 145.725 171.325,144.225 170.776,143.583 170.534 C 142.942 170.292,142.379 170.085,142.333 170.075 C 142.287 170.064,142.040 169.969,141.784 169.862 C 141.528 169.756,141.134 169.623,140.909 169.567 C 140.684 169.510,140.500 169.397,140.500 169.315 C 140.500 169.160,140.458 169.157,139.917 169.282 M57.317 217.064 C 57.280 217.097,56.050 217.176,54.583 217.241 C 50.873 217.404,49.936 217.462,48.057 217.642 C 47.155 217.729,46.304 217.805,46.167 217.813 C 44.889 217.881,40.995 218.325,38.583 218.676 C 38.033 218.757,37.058 218.897,36.417 218.988 C 34.284 219.291,32.262 219.641,31.219 219.888 C 30.652 220.022,30.157 220.101,30.119 220.063 C 30.081 220.025,29.236 220.191,28.241 220.430 C 27.245 220.670,26.203 220.885,25.924 220.908 C 25.355 220.954,20.659 222.069,19.500 222.433 C 19.087 222.562,18.618 222.668,18.456 222.667 C 18.294 222.667,18.032 222.734,17.873 222.815 C 17.714 222.897,17.386 223.042,17.145 223.136 L 16.706 223.308 17.043 224.529 C 17.229 225.201,17.517 226.237,17.682 226.833 C 17.848 227.429,18.138 228.479,18.327 229.167 C 18.515 229.854,18.960 231.467,19.315 232.750 C 19.670 234.033,20.163 235.833,20.411 236.750 C 20.658 237.667,20.958 238.754,21.079 239.167 C 21.199 239.579,21.466 240.554,21.672 241.333 C 21.878 242.112,22.176 243.200,22.335 243.750 C 22.494 244.300,22.791 245.387,22.996 246.167 C 23.200 246.946,23.504 248.033,23.672 248.583 C 23.839 249.133,24.028 249.846,24.091 250.167 C 24.258 251.014,24.484 251.386,24.720 251.200 C 24.908 251.053,25.785 250.793,25.874 250.859 C 25.898 250.876,26.101 250.791,26.326 250.671 C 26.550 250.550,27.000 250.433,27.326 250.409 C 27.651 250.386,29.304 250.026,31.000 249.610 C 34.764 248.686,37.255 248.167,37.919 248.167 C 38.194 248.167,38.681 248.086,39.001 247.988 C 39.321 247.890,40.108 247.740,40.750 247.656 C 41.392 247.571,42.442 247.426,43.083 247.334 C 44.203 247.172,46.344 246.897,47.750 246.734 C 48.938 246.596,49.718 246.529,51.500 246.412 C 52.462 246.349,53.296 246.270,53.353 246.236 C 53.956 245.874,72.546 245.879,73.156 246.241 C 73.208 246.272,74.083 246.343,75.100 246.400 C 76.118 246.457,77.918 246.620,79.100 246.761 C 80.283 246.903,81.550 247.048,81.917 247.085 C 82.283 247.122,82.883 247.207,83.250 247.274 C 83.617 247.341,83.962 247.385,84.018 247.372 C 84.074 247.359,84.937 247.496,85.935 247.675 C 86.933 247.855,88.265 248.078,88.894 248.170 C 89.524 248.262,90.094 248.372,90.162 248.414 C 90.230 248.456,90.615 248.529,91.018 248.578 C 91.830 248.675,94.063 249.159,96.538 249.776 C 97.430 249.998,98.780 250.319,99.538 250.490 C 102.454 251.147,112.810 254.417,114.406 255.184 C 114.767 255.358,115.184 255.500,115.331 255.500 C 115.479 255.500,115.672 255.572,115.759 255.659 C 115.847 255.747,116.630 256.080,117.501 256.400 C 119.718 257.215,121.577 258.018,125.025 259.651 C 125.819 260.026,126.514 260.333,126.570 260.333 C 126.627 260.333,126.953 260.507,127.295 260.719 C 127.637 260.930,128.179 261.209,128.500 261.337 C 128.821 261.466,130.005 262.080,131.132 262.702 C 132.258 263.324,133.224 263.833,133.278 263.833 C 133.388 263.833,137.846 266.398,138.500 266.837 C 138.729 266.991,139.629 267.554,140.500 268.089 C 141.371 268.623,142.709 269.478,143.474 269.989 C 145.413 271.284,146.178 271.789,146.707 272.126 C 146.959 272.286,147.165 272.473,147.166 272.542 C 147.166 272.610,147.250 272.667,147.351 272.667 C 147.453 272.667,147.898 272.948,148.341 273.292 C 149.477 274.172,151.254 275.494,152.095 276.083 C 152.488 276.358,152.984 276.733,153.199 276.917 C 153.413 277.100,154.000 277.584,154.503 277.992 C 155.667 278.938,158.224 281.056,158.333 281.166 C 158.379 281.212,159.092 281.848,159.917 282.580 C 163.941 286.147,169.049 291.269,172.533 295.232 C 173.755 296.621,173.848 296.729,174.474 297.490 C 174.809 297.896,175.215 298.365,175.375 298.531 C 175.535 298.697,175.667 298.871,175.667 298.917 C 175.667 298.962,175.798 299.134,175.958 299.297 C 176.119 299.461,176.438 299.842,176.667 300.145 C 176.896 300.448,177.161 300.783,177.255 300.889 C 177.350 300.996,177.797 301.571,178.250 302.167 C 178.703 302.762,179.150 303.341,179.245 303.453 C 179.563 303.827,179.749 304.077,181.002 305.805 C 181.688 306.753,182.325 307.652,182.417 307.805 C 182.508 307.957,182.790 308.356,183.042 308.690 C 183.294 309.024,183.500 309.375,183.500 309.468 C 183.500 309.562,183.558 309.664,183.628 309.694 C 183.699 309.725,184.047 310.200,184.403 310.750 C 185.471 312.402,186.744 314.395,186.959 314.750 C 188.184 316.773,188.500 317.334,188.500 317.487 C 188.500 317.586,188.574 317.667,188.664 317.667 C 188.755 317.667,188.941 317.910,189.078 318.208 C 189.216 318.506,189.625 319.275,189.988 319.917 C 191.701 322.946,194.037 327.617,195.614 331.167 C 195.838 331.671,196.166 332.361,196.344 332.700 C 196.521 333.039,196.667 333.415,196.667 333.535 C 196.667 333.656,196.820 334.041,197.008 334.392 C 197.370 335.068,197.945 336.519,198.593 338.392 C 198.810 339.021,199.056 339.621,199.140 339.726 C 199.223 339.831,199.538 340.704,199.838 341.667 C 200.139 342.629,200.437 343.492,200.501 343.583 C 200.566 343.675,200.849 344.500,201.131 345.417 C 201.413 346.333,201.874 347.833,202.156 348.750 C 202.437 349.667,202.667 350.575,202.667 350.769 C 202.667 351.117,202.690 351.115,204.542 350.588 C 205.573 350.294,207.054 349.883,207.833 349.675 C 208.612 349.467,209.737 349.160,210.333 348.993 C 210.929 348.826,212.017 348.526,212.750 348.326 C 213.483 348.126,214.571 347.827,215.167 347.661 C 215.762 347.495,216.850 347.196,217.583 346.995 C 219.072 346.589,220.473 346.204,222.333 345.689 C 223.021 345.499,224.183 345.183,224.917 344.986 C 225.650 344.790,226.700 344.494,227.250 344.328 C 227.800 344.163,228.644 343.939,229.126 343.830 C 229.607 343.722,230.042 343.567,230.091 343.487 C 230.193 343.322,229.751 341.725,229.524 341.437 C 229.387 341.262,228.911 339.469,228.977 339.373 C 228.993 339.349,228.902 339.124,228.773 338.873 C 228.644 338.622,228.297 337.554,228.002 336.500 C 227.706 335.446,227.293 334.206,227.084 333.744 C 226.875 333.283,226.572 332.420,226.410 331.828 C 226.248 331.235,226.012 330.563,225.885 330.333 C 225.758 330.104,225.441 329.317,225.180 328.583 C 224.920 327.850,224.480 326.688,224.203 326.000 C 223.926 325.313,223.536 324.337,223.337 323.833 C 223.138 323.329,222.839 322.617,222.672 322.250 C 222.506 321.883,222.131 321.021,221.841 320.333 C 221.550 319.646,221.242 318.971,221.155 318.833 C 221.069 318.696,220.952 318.471,220.895 318.333 C 220.021 316.211,216.325 308.880,214.764 306.174 C 214.344 305.445,214.000 304.795,214.000 304.729 C 214.000 304.663,213.896 304.491,213.769 304.346 C 213.641 304.202,213.323 303.689,213.060 303.208 C 212.798 302.726,212.469 302.126,212.328 301.875 C 212.015 301.312,211.456 300.446,211.334 300.333 C 211.284 300.287,211.150 300.063,211.037 299.833 C 210.923 299.604,210.681 299.192,210.500 298.917 C 210.319 298.642,210.117 298.304,210.053 298.167 C 209.988 298.029,209.687 297.570,209.384 297.147 C 209.081 296.723,208.833 296.292,208.833 296.188 C 208.833 296.085,208.770 296.000,208.693 296.000 C 208.616 296.000,208.463 295.831,208.353 295.625 C 208.039 295.035,207.798 294.654,207.083 293.611 C 206.717 293.077,206.342 292.514,206.250 292.361 C 206.158 292.208,206.045 292.046,205.999 292.000 C 205.835 291.839,204.167 289.492,204.167 289.423 C 204.167 289.385,203.942 289.108,203.667 288.806 C 203.392 288.505,203.167 288.196,203.167 288.120 C 203.167 287.999,201.412 285.603,200.923 285.056 C 200.828 284.949,200.563 284.614,200.333 284.312 C 200.104 284.009,199.785 283.627,199.625 283.464 C 199.465 283.300,199.333 283.124,199.333 283.073 C 199.333 283.021,199.038 282.627,198.678 282.198 C 198.317 281.768,197.523 280.817,196.914 280.083 C 195.828 278.776,194.953 277.746,194.084 276.750 C 193.843 276.475,193.419 275.987,193.140 275.667 C 190.576 272.718,184.151 266.186,180.925 263.250 C 180.019 262.425,179.071 261.563,178.819 261.333 C 178.566 261.104,178.040 260.654,177.648 260.333 C 177.256 260.012,176.692 259.525,176.394 259.250 C 176.096 258.975,175.537 258.487,175.150 258.167 C 174.764 257.846,174.364 257.501,174.261 257.400 C 173.916 257.063,167.162 251.790,166.167 251.082 C 161.944 248.076,160.418 247.032,156.750 244.635 C 151.365 241.117,138.658 234.200,135.250 232.931 C 134.792 232.761,134.304 232.528,134.167 232.414 C 134.029 232.299,133.729 232.151,133.500 232.085 C 133.043 231.951,132.361 231.666,131.083 231.074 C 130.625 230.862,129.800 230.525,129.250 230.326 C 128.700 230.127,127.875 229.794,127.417 229.588 C 126.370 229.116,125.637 228.829,123.750 228.150 C 122.925 227.853,122.175 227.560,122.083 227.499 C 121.687 227.234,112.453 224.279,109.667 223.525 C 105.244 222.329,103.244 221.813,102.833 221.759 C 102.573 221.726,99.595 221.053,97.199 220.486 C 96.437 220.306,95.749 220.199,95.669 220.249 C 95.589 220.298,95.475 220.261,95.417 220.167 C 95.358 220.072,95.255 220.029,95.188 220.070 C 95.120 220.112,94.732 220.071,94.324 219.979 C 93.378 219.766,91.012 219.352,90.111 219.242 C 89.729 219.195,89.304 219.124,89.167 219.083 C 89.029 219.043,88.579 218.967,88.167 218.915 C 87.754 218.862,86.892 218.748,86.250 218.660 C 83.217 218.246,78.320 217.706,76.583 217.594 C 76.125 217.565,74.887 217.487,73.833 217.420 C 72.779 217.353,71.654 217.271,71.333 217.236 C 70.544 217.151,57.401 216.990,57.317 217.064 M59.956 277.427 C 59.934 277.445,58.642 277.513,57.083 277.578 C 52.756 277.758,51.672 277.849,48.000 278.337 C 47.221 278.441,46.471 278.529,46.333 278.533 C 46.196 278.537,45.708 278.610,45.250 278.696 C 44.792 278.782,43.779 278.959,43.000 279.090 C 39.196 279.730,33.072 281.079,32.773 281.343 C 32.694 281.413,32.750 281.833,32.897 282.277 C 33.155 283.060,33.296 283.566,34.230 287.083 C 34.473 288.000,34.814 289.237,34.988 289.833 C 35.532 291.701,35.948 293.200,36.328 294.667 C 36.530 295.446,36.836 296.571,37.009 297.167 C 37.183 297.762,37.484 298.850,37.679 299.583 C 37.874 300.317,38.175 301.404,38.349 302.000 C 38.685 303.154,39.860 307.442,40.165 308.627 C 40.334 309.285,40.381 309.330,40.799 309.236 C 41.047 309.180,41.587 309.075,42.000 309.002 C 42.412 308.930,43.012 308.786,43.333 308.682 C 43.654 308.579,44.142 308.456,44.417 308.409 C 44.692 308.362,45.292 308.218,45.750 308.090 C 46.208 307.962,46.958 307.810,47.417 307.751 C 47.875 307.693,48.737 307.543,49.333 307.419 C 49.929 307.294,51.017 307.143,51.750 307.082 C 52.483 307.021,53.346 306.906,53.667 306.826 C 53.987 306.746,55.225 306.632,56.417 306.573 C 57.608 306.514,58.638 306.433,58.704 306.392 C 58.859 306.298,67.803 306.296,67.963 306.390 C 68.029 306.429,68.871 306.514,69.833 306.578 C 70.796 306.642,71.733 306.714,71.917 306.736 C 72.100 306.759,72.737 306.834,73.333 306.902 C 73.929 306.971,75.254 307.170,76.277 307.346 C 77.300 307.522,78.425 307.702,78.777 307.747 C 79.129 307.792,79.829 307.936,80.333 308.067 C 80.837 308.199,81.556 308.351,81.931 308.407 C 82.495 308.491,85.661 309.370,89.167 310.417 C 90.383 310.780,94.451 312.246,95.417 312.669 C 95.783 312.829,96.646 313.203,97.333 313.499 C 98.690 314.084,102.147 315.756,102.417 315.958 C 102.508 316.027,102.921 316.255,103.333 316.465 C 103.746 316.675,104.233 316.938,104.417 317.050 C 104.600 317.161,105.462 317.654,106.333 318.146 C 110.519 320.508,116.348 324.841,120.544 328.708 C 120.917 329.052,121.285 329.333,121.361 329.333 C 121.437 329.333,121.500 329.390,121.500 329.459 C 121.500 329.528,122.458 330.559,123.628 331.751 C 124.798 332.942,126.204 334.439,126.753 335.078 C 127.301 335.717,127.913 336.429,128.113 336.661 C 128.433 337.034,128.876 337.566,129.296 338.083 C 129.625 338.489,132.433 342.290,132.583 342.532 C 132.738 342.781,133.886 344.511,134.372 345.228 C 134.488 345.399,134.715 345.710,134.875 345.921 C 135.035 346.131,135.167 346.340,135.167 346.387 C 135.167 346.493,136.533 348.888,136.657 349.000 C 137.003 349.311,140.500 356.489,140.500 356.887 C 140.500 357.004,140.578 357.178,140.674 357.274 C 141.029 357.629,144.167 366.320,144.167 366.950 C 144.167 367.100,144.275 367.157,144.458 367.102 C 144.619 367.053,145.313 366.861,146.000 366.674 C 146.688 366.487,147.775 366.184,148.417 366.001 C 149.058 365.818,149.921 365.586,150.333 365.485 C 150.746 365.385,151.533 365.169,152.083 365.006 C 152.633 364.844,153.721 364.543,154.500 364.339 C 155.279 364.134,156.367 363.832,156.917 363.668 C 157.467 363.504,158.554 363.203,159.333 363.000 C 160.112 362.797,161.200 362.499,161.750 362.337 C 162.300 362.176,163.387 361.876,164.167 361.670 C 164.946 361.465,166.071 361.159,166.667 360.990 C 167.689 360.701,169.184 360.287,170.800 359.844 C 171.354 359.693,171.497 359.584,171.429 359.366 C 171.380 359.210,171.035 357.998,170.661 356.672 C 170.287 355.346,169.919 354.184,169.843 354.089 C 169.766 353.994,169.502 353.279,169.255 352.500 C 169.008 351.721,168.630 350.705,168.415 350.243 C 168.200 349.781,167.968 349.181,167.901 348.910 C 167.833 348.639,167.565 347.967,167.306 347.417 C 167.046 346.867,166.834 346.295,166.833 346.145 C 166.833 345.996,166.728 345.787,166.600 345.680 C 166.471 345.574,166.317 345.283,166.257 345.035 C 165.999 343.970,160.851 333.781,160.344 333.333 C 160.292 333.287,160.149 333.071,160.026 332.852 C 159.903 332.633,159.654 332.191,159.473 331.869 C 159.293 331.547,158.850 330.840,158.489 330.297 C 158.128 329.754,157.833 329.275,157.833 329.231 C 157.833 329.147,157.143 328.137,156.991 328.000 C 156.941 327.954,156.718 327.617,156.497 327.250 C 156.277 326.883,156.018 326.499,155.923 326.395 C 155.828 326.292,155.637 326.037,155.500 325.829 C 155.362 325.621,155.006 325.123,154.708 324.724 C 154.410 324.324,154.165 323.942,154.164 323.874 C 154.163 323.806,153.930 323.487,153.647 323.167 C 153.364 322.846,152.788 322.115,152.368 321.542 C 151.947 320.969,151.542 320.500,151.468 320.500 C 151.394 320.500,151.332 320.406,151.329 320.292 C 151.327 320.177,151.084 319.814,150.788 319.485 C 150.492 319.155,149.950 318.531,149.583 318.097 C 147.709 315.879,146.583 314.610,145.542 313.538 C 144.969 312.949,144.500 312.405,144.500 312.331 C 144.500 312.256,144.432 312.169,144.349 312.139 C 144.266 312.108,143.229 311.146,142.045 310.000 C 140.861 308.854,139.230 307.317,138.422 306.583 C 136.238 304.602,136.081 304.467,134.737 303.405 C 134.280 303.044,133.796 302.655,133.662 302.542 C 132.043 301.180,127.165 297.605,125.345 296.447 C 125.031 296.247,124.356 295.811,123.845 295.477 C 122.537 294.622,118.329 292.152,116.083 290.920 C 114.387 289.990,111.695 288.666,109.500 287.682 C 108.446 287.210,107.459 286.754,107.306 286.669 C 107.154 286.585,106.104 286.165,104.973 285.737 C 103.842 285.309,102.842 284.905,102.750 284.839 C 102.579 284.717,100.018 283.837,96.750 282.779 C 94.777 282.140,90.969 281.037,90.317 280.916 C 90.097 280.875,88.979 280.619,87.833 280.348 C 86.039 279.922,83.913 279.471,82.750 279.269 C 79.206 278.653,76.714 278.293,74.500 278.077 C 73.996 278.027,73.283 277.954,72.917 277.913 C 72.133 277.827,70.853 277.726,68.667 277.579 C 67.178 277.479,60.041 277.355,59.956 277.427 " stroke="none" fill="#fbfbfb" fill-rule="evenodd"></path><path id="path1" d="M188.526 156.130 C 187.705 157.733,190.202 166.200,192.605 169.962 C 192.914 170.445,193.167 170.865,193.167 170.895 C 193.167 170.926,192.546 170.994,191.787 171.048 C 189.292 171.224,187.038 172.304,185.275 174.168 C 184.298 175.201,183.000 177.330,183.000 177.899 C 183.000 178.433,182.682 178.141,181.849 176.843 C 179.112 172.575,177.108 167.525,176.028 162.171 C 175.463 159.366,175.529 159.474,174.541 159.761 C 173.614 160.031,171.952 160.495,170.083 161.006 C 169.350 161.207,168.412 161.469,168.000 161.589 C 167.587 161.709,166.537 162.001,165.667 162.238 C 161.176 163.460,157.761 164.396,156.417 164.774 C 155.592 165.006,154.654 165.254,154.333 165.324 C 154.012 165.395,153.188 165.617,152.500 165.818 C 150.424 166.425,149.645 166.644,148.250 167.016 C 147.517 167.211,146.579 167.469,146.167 167.589 C 145.754 167.709,144.667 168.009,143.750 168.255 C 140.758 169.061,140.602 169.111,140.543 169.287 C 140.512 169.382,140.673 169.507,140.902 169.565 C 141.131 169.622,141.528 169.756,141.784 169.862 C 142.040 169.969,142.287 170.064,142.333 170.075 C 142.379 170.085,142.942 170.292,143.583 170.534 C 144.225 170.776,145.725 171.325,146.917 171.754 C 148.108 172.183,149.383 172.669,149.750 172.833 C 150.117 172.998,151.092 173.378,151.917 173.678 C 152.742 173.978,153.496 174.283,153.594 174.356 C 153.691 174.429,154.478 174.761,155.344 175.094 C 156.209 175.428,156.992 175.756,157.083 175.825 C 157.175 175.893,157.962 176.232,158.833 176.578 C 159.704 176.924,160.492 177.260,160.583 177.326 C 160.675 177.391,161.012 177.545,161.333 177.668 C 165.542 179.284,177.805 185.601,183.494 189.083 C 183.944 189.358,184.748 189.841,185.281 190.156 C 185.814 190.472,186.912 191.165,187.720 191.698 C 188.529 192.231,189.213 192.667,189.241 192.667 C 189.295 192.667,192.475 194.740,192.750 194.956 C 192.842 195.027,193.140 195.229,193.412 195.405 C 193.685 195.580,193.985 195.787,194.079 195.864 C 194.173 195.941,194.512 196.177,194.833 196.388 C 195.450 196.792,197.634 198.312,197.917 198.532 C 198.180 198.738,199.516 199.696,200.422 200.328 C 200.877 200.646,201.395 201.040,201.573 201.203 C 201.751 201.367,201.946 201.500,202.006 201.500 C 202.066 201.500,202.282 201.644,202.485 201.820 C 202.688 201.996,203.280 202.427,203.802 202.778 C 204.323 203.129,204.811 203.513,204.886 203.630 C 204.961 203.747,205.298 204.026,205.636 204.249 C 206.461 204.795,208.927 206.673,211.092 208.406 C 211.857 209.017,211.867 209.080,210.156 202.917 C 209.774 201.542,209.362 200.042,209.241 199.583 C 209.121 199.125,208.836 198.075,208.608 197.250 C 208.381 196.425,208.071 195.300,207.920 194.750 C 207.769 194.200,207.548 193.674,207.429 193.582 C 207.125 193.345,205.619 187.881,205.717 187.369 C 205.809 186.887,205.565 186.047,205.216 185.642 C 204.892 185.266,203.311 179.500,203.430 179.126 C 203.518 178.846,203.113 177.134,202.335 174.500 C 202.159 173.904,201.783 172.522,201.500 171.429 C 201.216 170.336,200.956 169.397,200.922 169.342 C 200.888 169.287,200.593 168.231,200.267 166.996 C 199.025 162.292,198.556 160.954,197.891 160.220 C 197.785 160.103,197.598 159.781,197.475 159.504 C 197.352 159.227,197.170 159.000,197.070 159.000 C 196.970 159.000,196.688 158.775,196.443 158.500 C 196.198 158.225,195.923 158.000,195.832 158.000 C 195.741 158.000,195.667 157.875,195.667 157.722 C 195.667 157.569,195.619 157.492,195.560 157.551 C 195.502 157.609,195.240 157.504,194.977 157.317 C 194.715 157.130,194.500 157.034,194.500 157.104 C 194.500 157.173,194.394 157.085,194.264 156.907 C 194.134 156.729,193.974 156.637,193.909 156.702 C 193.844 156.767,193.583 156.713,193.329 156.581 C 192.146 155.969,188.771 155.652,188.526 156.130 M181.708 157.839 C 181.502 157.921,181.333 158.114,181.333 158.267 C 181.333 158.684,182.124 162.431,182.471 163.657 C 182.836 164.948,183.273 165.278,183.119 164.147 C 183.064 163.746,182.926 162.123,182.812 160.542 C 182.589 157.457,182.599 157.481,181.708 157.839 M78.833 186.071 C 76.276 186.803,73.854 187.474,71.583 188.081 C 70.326 188.418,67.536 189.193,64.833 189.958 C 63.688 190.282,62.487 190.602,62.167 190.669 C 61.846 190.736,60.608 191.067,59.417 191.405 C 58.225 191.743,56.688 192.175,56.000 192.364 C 55.313 192.554,54.300 192.840,53.750 192.999 C 53.200 193.159,52.150 193.448,51.417 193.642 C 50.085 193.994,47.152 194.796,42.750 196.010 C 41.467 196.364,39.292 196.961,37.917 197.336 C 34.074 198.384,33.178 198.630,31.917 198.982 C 31.275 199.162,30.150 199.472,29.417 199.673 C 28.683 199.873,27.746 200.136,27.333 200.255 C 26.921 200.375,25.833 200.675,24.917 200.921 C 24.000 201.167,22.762 201.503,22.167 201.667 C 21.571 201.832,20.858 202.017,20.583 202.079 C 20.029 202.205,18.647 202.866,18.239 203.201 C 18.094 203.320,17.831 203.548,17.655 203.708 C 17.478 203.869,17.286 204.000,17.228 204.000 C 17.101 204.000,16.687 204.468,15.957 205.438 C 15.660 205.833,15.320 206.159,15.201 206.162 C 15.082 206.164,15.001 206.260,15.019 206.375 C 15.038 206.490,14.963 206.805,14.851 207.075 C 14.459 208.030,14.007 209.591,13.933 210.250 C 13.891 210.617,13.843 210.954,13.825 211.000 C 13.808 211.046,13.798 211.126,13.804 211.179 C 13.809 211.231,13.849 211.728,13.892 212.282 C 13.935 212.836,14.232 214.218,14.553 215.353 C 14.874 216.488,15.410 218.429,15.744 219.667 C 16.078 220.904,16.422 222.089,16.509 222.300 C 16.596 222.510,16.667 222.820,16.667 222.988 C 16.667 223.290,17.580 223.142,17.941 222.781 C 18.004 222.718,18.212 222.667,18.403 222.667 C 18.594 222.668,19.087 222.562,19.500 222.433 C 20.659 222.069,25.355 220.954,25.924 220.908 C 26.203 220.885,27.245 220.670,28.241 220.430 C 29.236 220.191,30.081 220.025,30.119 220.063 C 30.157 220.101,30.652 220.022,31.219 219.888 C 32.262 219.641,34.284 219.291,36.417 218.988 C 37.058 218.897,38.033 218.757,38.583 218.676 C 40.995 218.325,44.889 217.881,46.167 217.813 C 46.304 217.805,47.155 217.729,48.057 217.642 C 49.800 217.475,50.381 217.437,54.583 217.221 C 59.455 216.970,72.546 217.106,74.083 217.424 C 74.267 217.462,75.167 217.535,76.083 217.586 C 78.425 217.716,82.478 218.144,86.250 218.660 C 86.892 218.748,87.754 218.862,88.167 218.915 C 88.579 218.967,89.029 219.043,89.167 219.083 C 89.304 219.124,89.729 219.195,90.111 219.242 C 91.012 219.352,93.378 219.766,94.324 219.979 C 94.732 220.071,95.120 220.112,95.188 220.070 C 95.255 220.029,95.358 220.072,95.417 220.167 C 95.475 220.261,95.589 220.298,95.669 220.249 C 95.749 220.199,96.437 220.306,97.199 220.486 C 99.595 221.053,102.573 221.726,102.833 221.759 C 103.244 221.813,105.244 222.329,109.667 223.525 C 112.453 224.279,121.687 227.234,122.083 227.499 C 122.175 227.560,122.925 227.853,123.750 228.150 C 125.637 228.829,126.370 229.116,127.417 229.588 C 127.875 229.794,128.700 230.127,129.250 230.326 C 129.800 230.525,130.625 230.862,131.083 231.074 C 132.361 231.666,133.043 231.951,133.500 232.085 C 133.729 232.151,134.029 232.299,134.167 232.414 C 134.304 232.528,134.792 232.761,135.250 232.931 C 138.658 234.200,151.365 241.117,156.750 244.635 C 160.418 247.032,161.944 248.076,166.167 251.082 C 167.162 251.790,173.916 257.063,174.261 257.400 C 174.364 257.501,174.764 257.846,175.150 258.167 C 175.537 258.487,176.096 258.975,176.394 259.250 C 176.692 259.525,177.256 260.012,177.648 260.333 C 178.040 260.654,178.566 261.104,178.819 261.333 C 179.071 261.563,180.019 262.425,180.925 263.250 C 184.151 266.186,190.576 272.718,193.140 275.667 C 193.419 275.987,193.843 276.475,194.084 276.750 C 194.953 277.746,195.828 278.776,196.914 280.083 C 197.523 280.817,198.317 281.768,198.678 282.198 C 199.038 282.627,199.333 283.021,199.333 283.073 C 199.333 283.124,199.465 283.300,199.625 283.464 C 199.785 283.627,200.104 284.009,200.333 284.312 C 200.563 284.614,200.828 284.949,200.923 285.056 C 201.412 285.603,203.167 287.999,203.167 288.120 C 203.167 288.196,203.392 288.505,203.667 288.806 C 203.942 289.108,204.167 289.385,204.167 289.423 C 204.167 289.492,205.835 291.839,205.999 292.000 C 206.045 292.046,206.158 292.208,206.250 292.361 C 206.342 292.514,206.717 293.077,207.083 293.611 C 207.798 294.654,208.039 295.035,208.353 295.625 C 208.463 295.831,208.616 296.000,208.693 296.000 C 208.770 296.000,208.833 296.085,208.833 296.188 C 208.833 296.292,209.081 296.723,209.384 297.147 C 209.687 297.570,209.988 298.029,210.053 298.167 C 210.117 298.304,210.319 298.642,210.500 298.917 C 210.681 299.192,210.923 299.604,211.037 299.833 C 211.150 300.063,211.284 300.287,211.334 300.333 C 211.456 300.446,212.015 301.312,212.328 301.875 C 212.469 302.126,212.798 302.726,213.060 303.208 C 213.323 303.689,213.641 304.202,213.769 304.346 C 213.896 304.491,214.000 304.663,214.000 304.729 C 214.000 304.795,214.344 305.445,214.764 306.174 C 216.120 308.524,219.010 314.194,220.325 317.083 C 220.617 317.725,220.926 318.362,221.012 318.500 C 221.098 318.637,221.215 318.862,221.271 319.000 C 221.550 319.678,222.404 321.660,222.672 322.250 C 222.839 322.617,223.138 323.329,223.337 323.833 C 223.536 324.337,223.926 325.313,224.203 326.000 C 224.480 326.688,224.920 327.850,225.180 328.583 C 225.441 329.317,225.758 330.104,225.885 330.333 C 226.012 330.563,226.248 331.235,226.410 331.828 C 226.572 332.420,226.875 333.283,227.084 333.744 C 227.293 334.206,227.706 335.446,228.002 336.500 C 228.297 337.554,228.644 338.622,228.773 338.873 C 228.902 339.124,228.993 339.349,228.977 339.373 C 228.905 339.477,229.403 341.281,229.586 341.583 C 229.697 341.767,229.881 342.265,229.995 342.692 L 230.201 343.467 231.725 343.053 C 232.564 342.826,233.422 342.606,233.633 342.565 C 233.844 342.524,234.331 342.387,234.716 342.260 C 236.071 341.814,238.089 341.293,238.638 341.248 C 238.943 341.223,239.339 341.044,239.519 340.851 C 239.699 340.658,239.921 340.500,240.013 340.500 C 240.508 340.500,243.333 338.041,243.333 337.610 C 243.333 337.487,243.519 337.302,243.747 337.198 C 244.024 337.072,244.127 336.923,244.059 336.746 C 244.003 336.600,244.162 336.105,244.412 335.646 C 244.662 335.187,244.822 334.767,244.768 334.712 C 244.714 334.658,244.740 334.529,244.826 334.426 C 245.442 333.683,245.378 330.921,244.688 328.482 C 244.419 327.529,243.963 325.887,243.674 324.833 C 243.386 323.779,243.045 322.542,242.917 322.083 C 242.788 321.625,242.375 320.125,241.999 318.750 C 241.623 317.375,241.132 315.612,240.908 314.833 C 240.685 314.054,240.324 312.742,240.106 311.917 C 239.311 308.904,238.490 305.897,238.241 305.083 C 237.987 304.252,236.546 298.988,235.664 295.667 C 235.129 293.653,234.182 290.225,233.592 288.167 C 233.198 286.792,232.514 284.309,231.249 279.667 C 230.912 278.429,230.347 276.367,229.994 275.083 C 228.277 268.835,228.011 267.855,227.815 267.042 C 227.673 266.455,227.518 266.165,227.343 266.162 C 227.200 266.159,226.671 265.591,226.167 264.899 C 225.662 264.207,225.137 263.515,224.999 263.362 C 224.860 263.209,224.486 262.746,224.167 262.333 C 223.611 261.614,221.276 258.795,220.904 258.394 C 220.806 258.288,220.243 257.623,219.654 256.916 C 219.065 256.210,218.265 255.299,217.875 254.893 C 217.485 254.486,217.167 254.122,217.167 254.083 C 217.167 254.045,216.848 253.681,216.458 253.277 C 216.069 252.872,215.000 251.728,214.083 250.735 C 210.687 247.056,203.866 240.434,200.094 237.154 C 199.733 236.840,199.233 236.396,198.982 236.167 C 198.732 235.938,198.211 235.491,197.826 235.175 C 197.440 234.859,197.040 234.520,196.937 234.422 C 196.834 234.323,196.150 233.759,195.417 233.169 C 194.683 232.578,194.046 232.049,194.000 231.993 C 193.843 231.798,189.083 228.061,188.583 227.739 C 188.308 227.562,187.933 227.281,187.750 227.116 C 187.567 226.951,187.004 226.520,186.500 226.158 C 184.955 225.048,184.784 224.922,184.597 224.750 C 184.498 224.658,184.117 224.379,183.750 224.131 C 183.383 223.883,182.746 223.438,182.333 223.143 C 181.921 222.848,180.758 222.058,179.750 221.387 C 178.742 220.716,177.354 219.786,176.667 219.320 C 174.902 218.124,172.465 216.577,171.824 216.245 C 171.526 216.091,171.199 215.891,171.099 215.801 C 170.867 215.593,167.195 213.427,165.333 212.401 C 164.554 211.972,163.354 211.304,162.667 210.917 C 161.264 210.127,158.099 208.445,157.083 207.950 C 149.871 204.435,148.728 203.909,143.083 201.510 C 142.258 201.159,141.246 200.737,140.833 200.573 C 140.421 200.409,139.774 200.140,139.396 199.976 C 139.017 199.811,137.742 199.329,136.562 198.903 C 135.382 198.477,134.342 198.071,134.250 198.001 C 133.736 197.610,119.807 193.239,116.583 192.457 C 116.033 192.324,114.721 192.006,113.667 191.751 C 112.612 191.496,111.638 191.249,111.500 191.202 C 111.362 191.154,111.175 191.107,111.083 191.097 C 110.992 191.087,110.167 190.905,109.250 190.692 C 105.060 189.722,102.266 189.126,101.667 189.075 C 101.438 189.055,100.650 188.923,99.917 188.782 C 97.384 188.293,96.250 188.099,96.124 188.133 C 96.054 188.152,95.651 188.090,95.229 187.995 C 94.806 187.900,94.187 187.793,93.855 187.757 C 93.522 187.721,92.688 187.605,92.000 187.500 C 91.313 187.394,90.525 187.281,90.250 187.248 C 89.569 187.167,85.223 186.665,84.500 186.583 C 83.615 186.483,82.378 186.363,81.083 186.250 C 80.442 186.195,79.892 186.078,79.861 185.991 C 79.794 185.800,79.774 185.801,78.833 186.071 M58.946 245.939 C 58.930 245.952,57.688 246.011,56.186 246.069 C 54.684 246.127,53.409 246.202,53.353 246.236 C 53.296 246.270,52.462 246.349,51.500 246.412 C 49.718 246.529,48.938 246.596,47.750 246.734 C 46.344 246.897,44.203 247.172,43.083 247.334 C 42.442 247.426,41.392 247.571,40.750 247.656 C 40.108 247.740,39.321 247.890,39.001 247.988 C 38.681 248.086,38.194 248.167,37.919 248.167 C 37.255 248.167,34.764 248.686,31.000 249.610 C 29.304 250.026,27.651 250.386,27.326 250.409 C 27.000 250.433,26.550 250.550,26.326 250.671 C 26.101 250.791,25.898 250.879,25.876 250.866 C 25.744 250.788,24.815 251.071,24.684 251.229 C 24.513 251.435,24.915 253.125,26.434 258.583 C 26.945 260.417,27.548 262.592,27.776 263.417 C 28.003 264.242,28.295 265.292,28.424 265.750 C 28.553 266.208,28.964 267.708,29.338 269.083 C 29.712 270.458,30.308 272.633,30.663 273.917 C 31.018 275.200,31.545 277.112,31.834 278.167 C 32.124 279.221,32.448 280.352,32.555 280.680 L 32.750 281.277 35.417 280.637 C 38.087 279.996,40.346 279.535,43.000 279.089 C 43.779 278.959,44.792 278.782,45.250 278.696 C 45.708 278.610,46.196 278.537,46.333 278.533 C 46.471 278.529,47.221 278.441,48.000 278.337 C 49.858 278.090,50.371 278.029,51.667 277.904 C 55.952 277.489,63.812 277.305,67.650 277.530 C 70.308 277.686,72.316 277.831,72.946 277.912 C 73.237 277.950,73.949 278.027,74.529 278.084 C 75.109 278.141,75.805 278.215,76.076 278.249 C 76.348 278.284,76.948 278.359,77.410 278.416 C 78.244 278.521,79.006 278.640,81.250 279.016 C 82.935 279.298,82.955 279.302,84.417 279.590 C 85.150 279.735,86.688 280.076,87.833 280.348 C 88.979 280.619,90.097 280.875,90.317 280.916 C 90.969 281.037,94.777 282.140,96.750 282.779 C 100.018 283.837,102.579 284.717,102.750 284.839 C 102.842 284.905,103.842 285.309,104.973 285.737 C 106.104 286.165,107.154 286.585,107.306 286.669 C 107.459 286.754,108.446 287.210,109.500 287.682 C 111.695 288.666,114.387 289.990,116.083 290.920 C 118.329 292.152,122.537 294.622,123.845 295.477 C 124.356 295.811,125.031 296.247,125.345 296.447 C 127.165 297.605,132.043 301.180,133.662 302.542 C 133.796 302.655,134.280 303.044,134.737 303.405 C 136.081 304.467,136.238 304.602,138.422 306.583 C 139.230 307.317,140.861 308.854,142.045 310.000 C 143.229 311.146,144.266 312.108,144.349 312.139 C 144.432 312.169,144.500 312.256,144.500 312.331 C 144.500 312.405,144.969 312.949,145.542 313.538 C 146.583 314.610,147.709 315.879,149.583 318.097 C 149.950 318.531,150.492 319.155,150.788 319.485 C 151.084 319.814,151.327 320.177,151.329 320.292 C 151.332 320.406,151.394 320.500,151.468 320.500 C 151.542 320.500,151.947 320.969,152.368 321.542 C 152.788 322.115,153.364 322.846,153.647 323.167 C 153.930 323.487,154.163 323.806,154.164 323.874 C 154.165 323.942,154.410 324.324,154.708 324.724 C 155.006 325.123,155.362 325.621,155.500 325.829 C 155.637 326.037,155.828 326.292,155.923 326.395 C 156.018 326.499,156.277 326.883,156.497 327.250 C 156.718 327.617,156.941 327.954,156.991 328.000 C 157.143 328.137,157.833 329.147,157.833 329.231 C 157.833 329.275,158.128 329.754,158.489 330.297 C 158.850 330.840,159.293 331.547,159.473 331.869 C 159.654 332.191,159.903 332.633,160.026 332.852 C 160.149 333.071,160.292 333.287,160.344 333.333 C 160.851 333.781,165.999 343.970,166.257 345.035 C 166.317 345.283,166.471 345.574,166.600 345.680 C 166.728 345.787,166.833 345.996,166.833 346.145 C 166.834 346.295,167.046 346.867,167.306 347.417 C 167.565 347.967,167.833 348.639,167.901 348.910 C 167.968 349.181,168.200 349.781,168.415 350.243 C 168.630 350.705,169.008 351.721,169.255 352.500 C 169.502 353.279,169.763 353.992,169.836 354.083 C 169.953 354.230,170.295 355.359,171.233 358.687 L 171.497 359.625 172.624 359.313 C 173.243 359.142,174.275 358.859,174.917 358.685 C 175.558 358.510,177.058 358.096,178.250 357.764 C 179.442 357.433,181.129 356.969,182.000 356.734 C 182.871 356.499,183.921 356.207,184.333 356.086 C 184.746 355.964,185.796 355.672,186.667 355.437 C 187.537 355.202,188.775 354.867,189.417 354.693 C 190.058 354.519,191.446 354.142,192.500 353.856 C 193.554 353.570,195.054 353.156,195.833 352.935 C 196.612 352.715,197.737 352.404,198.333 352.244 C 198.929 352.084,200.021 351.777,200.759 351.560 C 201.497 351.344,202.228 351.167,202.384 351.167 C 202.792 351.167,202.745 350.669,202.156 348.750 C 201.874 347.833,201.413 346.333,201.131 345.417 C 200.849 344.500,200.566 343.675,200.501 343.583 C 200.437 343.492,200.139 342.629,199.838 341.667 C 199.538 340.704,199.223 339.831,199.140 339.726 C 199.056 339.621,198.810 339.021,198.593 338.392 C 197.945 336.519,197.370 335.068,197.008 334.392 C 196.820 334.041,196.667 333.656,196.667 333.535 C 196.667 333.415,196.521 333.039,196.344 332.700 C 196.166 332.361,195.838 331.671,195.614 331.167 C 194.037 327.617,191.701 322.946,189.988 319.917 C 189.625 319.275,189.216 318.506,189.078 318.208 C 188.941 317.910,188.755 317.667,188.664 317.667 C 188.574 317.667,188.500 317.586,188.500 317.487 C 188.500 317.334,188.184 316.773,186.959 314.750 C 186.744 314.395,185.471 312.402,184.403 310.750 C 184.047 310.200,183.699 309.725,183.628 309.694 C 183.558 309.664,183.500 309.562,183.500 309.468 C 183.500 309.375,183.294 309.024,183.042 308.690 C 182.790 308.356,182.508 307.957,182.417 307.805 C 182.232 307.497,179.854 304.201,179.586 303.881 C 179.291 303.528,179.096 303.277,178.251 302.167 C 177.798 301.571,177.350 300.996,177.255 300.889 C 177.161 300.783,176.896 300.448,176.667 300.145 C 176.438 299.842,176.119 299.461,175.958 299.297 C 175.798 299.134,175.667 298.962,175.667 298.917 C 175.667 298.871,175.535 298.697,175.375 298.531 C 175.215 298.365,174.783 297.864,174.417 297.418 C 174.050 296.973,173.450 296.273,173.083 295.864 C 172.717 295.455,172.283 294.962,172.120 294.768 C 169.868 292.095,163.689 285.924,159.917 282.580 C 159.092 281.848,158.379 281.212,158.333 281.166 C 158.224 281.056,155.667 278.938,154.503 277.992 C 154.000 277.584,153.413 277.100,153.199 276.917 C 152.984 276.733,152.488 276.358,152.095 276.083 C 151.254 275.494,149.477 274.172,148.341 273.292 C 147.898 272.948,147.453 272.667,147.351 272.667 C 147.250 272.667,147.166 272.610,147.166 272.542 C 147.165 272.473,146.959 272.286,146.707 272.126 C 146.178 271.789,145.413 271.284,143.474 269.989 C 142.709 269.478,141.371 268.623,140.500 268.089 C 139.629 267.554,138.729 266.991,138.500 266.837 C 137.846 266.398,133.388 263.833,133.278 263.833 C 133.224 263.833,132.258 263.324,131.132 262.702 C 130.005 262.080,128.821 261.466,128.500 261.337 C 128.179 261.209,127.637 260.930,127.295 260.719 C 126.953 260.507,126.627 260.333,126.570 260.333 C 126.514 260.333,125.819 260.026,125.025 259.651 C 121.577 258.018,119.718 257.215,117.501 256.400 C 116.630 256.080,115.847 255.747,115.759 255.659 C 115.672 255.572,115.479 255.500,115.331 255.500 C 115.184 255.500,114.767 255.358,114.406 255.184 C 112.810 254.417,102.454 251.147,99.538 250.490 C 98.780 250.319,97.430 249.998,96.538 249.776 C 94.063 249.159,91.830 248.675,91.018 248.578 C 90.615 248.529,90.230 248.456,90.162 248.414 C 90.094 248.372,89.524 248.262,88.894 248.170 C 88.265 248.078,86.933 247.855,85.935 247.675 C 84.937 247.496,84.074 247.359,84.018 247.372 C 83.962 247.385,83.602 247.338,83.217 247.268 C 82.833 247.198,82.270 247.117,81.967 247.089 C 81.665 247.061,80.404 246.919,79.167 246.773 C 77.929 246.627,76.204 246.467,75.333 246.417 C 74.462 246.367,73.487 246.291,73.167 246.249 C 71.589 246.041,59.145 245.770,58.946 245.939 M60.333 306.356 C 56.364 306.530,54.284 306.677,53.667 306.828 C 53.346 306.907,52.483 307.021,51.750 307.082 C 51.017 307.143,49.929 307.294,49.333 307.419 C 48.737 307.543,47.875 307.693,47.417 307.751 C 46.958 307.810,46.208 307.962,45.750 308.090 C 45.292 308.218,44.692 308.362,44.417 308.409 C 44.142 308.456,43.654 308.579,43.333 308.682 C 43.012 308.786,42.412 308.931,42.000 309.005 C 40.895 309.204,40.687 309.257,40.573 309.371 C 40.467 309.478,40.663 310.283,41.840 314.583 C 42.216 315.958,42.622 317.458,42.741 317.917 C 42.860 318.375,43.231 319.725,43.566 320.917 C 43.900 322.108,44.295 323.533,44.443 324.083 C 44.592 324.633,44.882 325.683,45.088 326.417 C 45.295 327.150,45.741 328.762,46.081 330.000 C 46.421 331.237,46.989 333.300,47.344 334.583 C 47.699 335.867,48.294 338.042,48.667 339.417 C 49.039 340.792,49.528 342.554,49.752 343.333 C 49.977 344.113,50.350 345.462,50.581 346.333 C 51.022 347.991,52.423 353.104,53.754 357.917 C 54.186 359.475,54.755 361.575,55.020 362.583 C 55.285 363.592,55.587 364.673,55.690 364.987 C 55.793 365.301,56.120 366.463,56.416 367.570 C 57.382 371.184,58.170 374.062,58.493 375.167 C 58.668 375.762,59.122 377.368,59.503 378.735 C 59.883 380.101,60.338 381.487,60.514 381.815 C 60.690 382.143,60.833 382.507,60.833 382.623 C 60.833 382.738,60.908 382.833,61.000 382.833 C 61.092 382.833,61.167 382.903,61.167 382.989 C 61.167 383.376,63.830 385.792,64.542 386.050 C 64.702 386.109,64.833 386.280,64.833 386.432 C 64.833 386.633,64.889 386.661,65.042 386.535 C 65.189 386.413,65.424 386.447,65.842 386.651 C 66.167 386.809,66.524 386.909,66.633 386.872 C 66.743 386.836,66.833 386.875,66.833 386.959 C 66.833 387.108,67.524 387.209,68.617 387.220 C 68.910 387.223,69.117 387.280,69.076 387.345 C 69.035 387.411,69.109 387.506,69.240 387.557 C 69.371 387.607,69.502 387.577,69.531 387.491 C 69.560 387.404,69.996 387.303,70.500 387.266 C 71.004 387.229,71.771 387.077,72.205 386.927 C 72.638 386.778,73.861 386.435,74.923 386.165 C 75.984 385.895,76.909 385.639,76.978 385.597 C 77.047 385.554,78.149 385.244,79.427 384.908 C 81.737 384.299,82.168 384.182,85.833 383.162 C 86.888 382.869,87.975 382.571,88.250 382.500 C 88.525 382.429,89.612 382.131,90.667 381.838 C 91.721 381.544,92.756 381.271,92.966 381.231 C 93.177 381.190,93.665 381.053,94.050 380.927 C 94.740 380.699,97.180 380.020,97.667 379.920 C 97.804 379.892,98.442 379.718,99.083 379.535 C 99.725 379.352,100.737 379.071,101.333 378.911 C 101.929 378.751,103.017 378.452,103.750 378.246 C 104.483 378.041,105.683 377.710,106.417 377.512 C 107.150 377.313,108.237 377.013,108.833 376.844 C 109.429 376.675,111.079 376.222,112.500 375.837 C 113.921 375.451,115.421 375.035,115.833 374.913 C 116.746 374.640,119.143 373.993,119.532 373.914 C 119.786 373.862,121.206 373.470,125.500 372.265 C 126.279 372.047,127.404 371.737,128.000 371.577 C 128.596 371.418,129.683 371.117,130.417 370.910 C 131.842 370.507,135.387 369.535,138.917 368.581 C 143.075 367.457,144.167 367.110,144.167 366.911 C 144.167 366.313,141.013 357.613,140.674 357.274 C 140.578 357.178,140.500 357.004,140.500 356.887 C 140.500 356.489,137.003 349.311,136.657 349.000 C 136.533 348.888,135.167 346.493,135.167 346.387 C 135.167 346.340,135.035 346.131,134.875 345.921 C 134.715 345.710,134.488 345.399,134.372 345.228 C 133.886 344.511,132.738 342.781,132.583 342.532 C 132.433 342.290,129.625 338.489,129.296 338.083 C 128.876 337.566,128.433 337.034,128.113 336.661 C 127.913 336.429,127.301 335.717,126.753 335.078 C 126.204 334.439,124.798 332.942,123.628 331.751 C 122.458 330.559,121.500 329.528,121.500 329.459 C 121.500 329.390,121.437 329.333,121.361 329.333 C 121.285 329.333,120.917 329.052,120.544 328.708 C 116.348 324.841,110.519 320.508,106.333 318.146 C 105.462 317.654,104.600 317.161,104.417 317.050 C 104.233 316.938,103.746 316.675,103.333 316.465 C 102.921 316.255,102.508 316.027,102.417 315.958 C 102.147 315.756,98.690 314.084,97.333 313.499 C 96.646 313.203,95.783 312.829,95.417 312.669 C 94.451 312.246,90.383 310.780,89.167 310.417 C 85.661 309.370,82.495 308.491,81.931 308.407 C 81.556 308.351,80.837 308.199,80.333 308.067 C 79.829 307.936,79.142 307.793,78.806 307.751 C 78.469 307.708,77.532 307.556,76.722 307.414 C 74.817 307.077,72.894 306.827,70.417 306.592 C 69.750 306.529,65.637 306.336,63.750 306.280 C 63.200 306.263,61.663 306.298,60.333 306.356 " stroke="none" fill="#640464" fill-rule="evenodd"></path><path id="path2" d="M332.778 0.111 C 332.717 0.172,332.664 0.491,332.661 0.819 C 332.658 1.148,332.548 1.604,332.417 1.833 C 332.286 2.063,332.176 2.458,332.173 2.712 C 332.169 2.966,331.903 3.848,331.581 4.672 C 330.457 7.548,330.207 8.269,330.089 8.964 C 330.024 9.349,329.828 9.961,329.652 10.324 C 329.477 10.687,329.333 11.085,329.333 11.209 C 329.333 11.332,329.270 11.505,329.193 11.592 C 329.116 11.679,328.972 11.975,328.872 12.250 C 328.499 13.278,327.297 16.429,327.156 16.750 C 326.885 17.364,326.357 18.909,326.161 19.661 C 325.971 20.393,324.711 23.748,324.240 24.775 C 324.108 25.064,323.997 25.364,323.994 25.442 C 323.991 25.520,323.844 25.883,323.667 26.250 C 323.490 26.617,323.342 26.976,323.339 27.048 C 323.336 27.120,322.927 28.208,322.430 29.465 C 320.862 33.431,319.887 36.024,319.252 37.917 C 318.914 38.925,318.463 40.200,318.250 40.750 C 318.036 41.300,317.589 42.462,317.255 43.333 C 316.922 44.204,316.507 45.254,316.333 45.667 C 316.046 46.349,315.541 47.650,314.392 50.667 C 314.166 51.262,313.839 52.087,313.667 52.500 C 313.494 52.913,313.167 53.737,312.940 54.333 C 312.712 54.929,312.100 56.504,311.580 57.833 C 311.060 59.163,310.299 61.112,309.889 62.167 C 308.703 65.216,308.437 65.897,307.123 69.250 C 306.440 70.992,305.416 73.617,304.847 75.083 C 304.278 76.550,303.301 79.063,302.676 80.667 C 302.051 82.271,301.226 84.408,300.843 85.417 C 299.822 88.104,297.876 93.073,297.320 94.417 C 297.054 95.058,296.193 97.233,295.407 99.250 C 293.019 105.371,289.975 113.067,289.824 113.360 C 289.746 113.513,289.447 114.263,289.159 115.027 C 288.872 115.791,288.493 116.735,288.318 117.123 C 288.143 117.512,288.000 117.904,288.000 117.994 C 288.000 118.084,287.853 118.479,287.673 118.871 C 287.494 119.263,286.885 120.783,286.321 122.250 C 285.757 123.717,285.154 125.235,284.981 125.623 C 284.808 126.012,284.667 126.391,284.667 126.467 C 284.667 126.542,284.517 126.915,284.333 127.294 C 284.150 127.673,284.000 128.064,284.000 128.162 C 284.000 128.260,283.827 128.620,283.615 128.962 C 283.228 129.587,282.143 132.057,281.915 132.833 C 281.848 133.063,281.736 133.325,281.668 133.417 C 281.599 133.508,281.450 133.883,281.336 134.250 C 281.221 134.617,280.735 135.742,280.255 136.750 C 279.775 137.758,279.206 138.996,278.991 139.500 C 278.776 140.004,278.511 140.529,278.404 140.667 C 278.296 140.804,278.047 141.254,277.851 141.667 C 277.655 142.079,277.236 142.829,276.920 143.333 C 276.603 143.837,276.249 144.438,276.134 144.667 C 276.018 144.896,275.851 145.134,275.763 145.196 C 275.617 145.299,275.412 145.649,274.803 146.833 C 274.685 147.063,274.456 147.348,274.294 147.468 C 274.132 147.588,274.000 147.782,274.000 147.900 C 274.000 148.018,273.850 148.251,273.667 148.417 C 273.483 148.583,273.333 148.782,273.333 148.859 C 273.333 148.937,273.202 149.142,273.042 149.315 C 272.881 149.488,272.487 150.014,272.167 150.485 C 271.096 152.055,269.492 154.128,268.958 154.632 C 268.798 154.784,268.667 154.963,268.667 155.031 C 268.667 155.099,268.460 155.373,268.208 155.640 C 267.956 155.907,267.300 156.632,266.750 157.251 C 265.152 159.050,263.948 160.345,263.517 160.728 C 263.297 160.923,262.658 161.533,262.097 162.083 C 261.036 163.124,260.243 163.842,258.602 165.250 C 258.068 165.708,257.433 166.254,257.190 166.463 C 256.948 166.672,256.675 166.897,256.583 166.964 C 256.492 167.030,255.554 167.727,254.500 168.513 C 252.383 170.090,249.360 172.106,247.625 173.096 C 247.006 173.449,246.500 173.797,246.500 173.869 C 246.500 173.941,246.416 174.000,246.312 174.000 C 246.209 174.000,245.066 174.518,243.771 175.150 C 241.002 176.503,239.641 177.126,238.817 177.420 C 238.487 177.538,237.915 177.788,237.546 177.976 C 237.177 178.165,236.828 178.272,236.771 178.215 C 236.713 178.158,236.667 178.211,236.667 178.333 C 236.667 178.456,236.622 178.511,236.568 178.457 C 236.514 178.403,236.138 178.500,235.733 178.674 C 235.327 178.848,234.959 178.992,234.915 178.995 C 234.870 178.998,234.815 179.006,234.792 179.013 C 234.769 179.020,234.637 179.051,234.500 179.082 C 234.362 179.113,233.688 179.324,233.000 179.550 C 231.871 179.922,230.810 180.202,230.588 180.186 C 230.542 180.183,230.217 180.281,229.865 180.406 C 229.513 180.530,228.861 180.681,228.416 180.741 C 227.971 180.801,227.557 180.881,227.498 180.918 C 227.371 180.996,226.671 181.126,225.736 181.244 C 225.123 181.322,224.716 181.377,223.083 181.599 C 222.717 181.649,221.985 181.704,221.458 181.720 C 220.931 181.737,220.500 181.791,220.500 181.840 C 220.500 181.950,215.544 181.881,214.500 181.757 C 211.358 181.382,210.753 181.281,208.583 180.771 C 207.633 180.548,204.935 179.564,203.965 179.087 C 203.233 178.728,203.258 179.154,204.157 182.398 C 205.028 185.541,205.223 185.919,206.059 186.086 C 206.347 186.144,207.033 186.346,207.583 186.534 C 208.133 186.723,208.808 186.908,209.083 186.945 C 209.358 186.982,209.846 187.055,210.167 187.106 C 211.600 187.334,221.331 187.232,221.333 186.989 C 221.333 186.937,221.596 186.915,221.917 186.940 C 222.237 186.965,222.500 186.932,222.500 186.866 C 222.500 186.800,222.744 186.739,223.042 186.730 C 224.068 186.699,226.162 186.414,226.657 186.238 C 226.790 186.191,227.228 186.113,227.632 186.066 C 228.035 186.019,228.538 185.914,228.749 185.834 C 228.960 185.754,229.167 185.723,229.210 185.765 C 229.252 185.808,229.495 185.764,229.750 185.667 C 230.004 185.570,230.483 185.451,230.814 185.403 C 231.146 185.355,231.649 185.242,231.934 185.153 C 232.218 185.063,232.593 184.961,232.767 184.926 C 234.503 184.571,237.657 183.590,239.583 182.806 C 240.042 182.620,240.510 182.462,240.625 182.456 C 240.740 182.450,240.833 182.394,240.833 182.333 C 240.833 182.272,240.927 182.220,241.042 182.218 C 241.156 182.215,241.662 182.024,242.167 181.792 C 242.671 181.561,243.327 181.279,243.625 181.166 C 243.923 181.052,244.167 180.889,244.167 180.803 C 244.167 180.717,244.229 180.685,244.305 180.732 C 244.427 180.808,247.231 179.338,248.833 178.359 C 249.154 178.163,249.529 177.950,249.667 177.886 C 250.163 177.653,252.251 176.269,252.306 176.136 C 252.336 176.061,252.438 176.000,252.531 176.000 C 252.678 176.000,253.003 175.771,253.951 174.997 C 254.062 174.907,254.197 174.833,254.252 174.833 C 254.306 174.833,255.640 173.875,257.217 172.704 C 259.845 170.752,260.445 170.332,261.917 169.410 L 262.417 169.096 262.083 169.490 C 261.570 170.096,258.469 173.165,258.000 173.531 C 257.458 173.954,256.063 175.147,255.552 175.625 C 255.332 175.831,255.109 176.000,255.056 176.000 C 255.004 176.000,254.688 176.228,254.355 176.506 C 253.453 177.259,253.355 177.333,253.259 177.333 C 253.210 177.333,252.738 177.655,252.210 178.049 C 251.682 178.443,250.387 179.278,249.333 179.905 C 248.279 180.531,247.362 181.128,247.294 181.230 C 247.227 181.333,247.171 181.364,247.169 181.299 C 247.168 181.234,246.316 181.628,245.277 182.173 C 244.238 182.719,243.338 183.116,243.277 183.055 C 243.216 182.994,243.167 183.032,243.167 183.139 C 243.167 183.246,243.052 183.333,242.912 183.333 C 242.772 183.333,242.218 183.555,241.682 183.826 C 241.146 184.096,240.660 184.271,240.603 184.214 C 240.547 184.158,240.500 184.211,240.500 184.333 C 240.500 184.456,240.456 184.512,240.402 184.458 C 240.349 184.404,239.824 184.576,239.236 184.840 C 238.648 185.104,238.167 185.284,238.167 185.241 C 238.167 185.198,237.885 185.282,237.542 185.428 C 237.198 185.575,236.729 185.731,236.500 185.774 C 236.271 185.818,235.558 186.028,234.917 186.241 C 233.862 186.592,232.808 186.868,232.588 186.853 C 232.542 186.849,232.217 186.948,231.865 187.072 C 231.513 187.196,230.873 187.346,230.443 187.404 C 230.014 187.462,229.476 187.581,229.248 187.668 C 229.020 187.754,228.833 187.791,228.833 187.750 C 228.833 187.709,228.660 187.741,228.448 187.822 C 228.235 187.902,227.553 188.017,226.932 188.077 C 226.311 188.137,225.635 188.250,225.429 188.329 C 225.224 188.407,224.818 188.454,224.528 188.434 C 224.237 188.414,224.000 188.441,224.000 188.494 C 224.000 188.547,223.719 188.594,223.375 188.599 C 223.031 188.604,222.000 188.668,221.083 188.742 C 220.167 188.816,218.348 188.886,217.042 188.897 C 215.736 188.908,214.667 188.977,214.667 189.052 C 214.667 189.126,214.590 189.139,214.497 189.081 C 214.403 189.024,213.897 188.953,213.372 188.924 C 210.965 188.793,209.345 188.448,207.138 187.596 C 205.784 187.073,205.667 187.068,205.667 187.534 C 205.667 188.340,207.214 193.417,207.526 193.636 C 207.698 193.757,207.804 193.912,207.762 193.981 C 207.719 194.050,207.891 194.076,208.144 194.039 C 208.397 194.002,209.049 194.057,209.593 194.162 C 210.138 194.266,210.816 194.377,211.100 194.407 C 211.383 194.437,211.908 194.511,212.266 194.571 C 214.731 194.982,223.201 194.987,226.083 194.578 C 226.358 194.539,226.958 194.464,227.417 194.412 C 227.875 194.360,228.362 194.279,228.499 194.232 C 228.635 194.185,229.113 194.107,229.560 194.059 C 230.007 194.010,230.757 193.871,231.226 193.750 C 231.694 193.628,232.136 193.564,232.206 193.607 C 232.276 193.651,232.333 193.622,232.333 193.544 C 232.333 193.466,232.606 193.383,232.940 193.361 C 233.274 193.338,233.684 193.247,233.851 193.157 C 234.018 193.068,234.363 192.965,234.619 192.929 C 234.874 192.892,235.496 192.740,236.000 192.590 C 236.504 192.441,237.067 192.289,237.250 192.253 C 237.433 192.218,237.846 192.097,238.167 191.986 C 240.122 191.306,240.669 191.111,241.420 190.822 C 241.880 190.645,242.349 190.500,242.462 190.500 C 242.574 190.500,242.667 190.421,242.667 190.323 C 242.667 190.226,242.732 190.187,242.811 190.236 C 242.891 190.286,243.417 190.103,243.981 189.830 C 244.544 189.557,245.070 189.333,245.150 189.333 C 245.229 189.333,246.072 188.959,247.022 188.502 C 247.972 188.045,248.844 187.670,248.958 187.669 C 249.073 187.668,249.167 187.579,249.167 187.472 C 249.167 187.365,249.212 187.324,249.268 187.379 C 249.324 187.435,249.660 187.298,250.015 187.074 C 250.370 186.850,250.702 186.667,250.753 186.667 C 251.055 186.667,258.214 182.378,258.306 182.142 C 258.336 182.064,258.429 182.000,258.512 182.000 C 258.596 182.000,259.021 181.737,259.457 181.415 C 259.893 181.092,260.325 180.774,260.417 180.706 C 260.508 180.639,260.902 180.376,261.292 180.123 C 261.681 179.869,262.000 179.588,262.000 179.498 C 262.000 179.407,262.080 179.333,262.178 179.333 C 262.406 179.333,263.516 178.507,263.801 178.125 C 263.921 177.965,264.093 177.833,264.183 177.833 C 264.273 177.833,264.513 177.676,264.715 177.484 C 264.918 177.291,265.515 176.799,266.042 176.390 C 266.569 175.982,267.000 175.593,267.000 175.526 C 267.000 175.460,267.206 175.279,267.458 175.125 C 267.873 174.872,268.769 174.060,271.114 171.814 C 271.555 171.391,272.817 170.091,273.917 168.925 C 276.638 166.040,277.006 165.637,277.583 164.911 C 277.858 164.565,278.294 164.050,278.551 163.766 C 278.809 163.482,279.184 163.040,279.385 162.782 C 279.586 162.525,279.862 162.176,280.000 162.006 C 280.137 161.837,280.362 161.529,280.500 161.323 C 280.637 161.117,280.881 160.831,281.042 160.687 C 281.202 160.543,281.333 160.333,281.333 160.219 C 281.333 160.105,281.483 159.931,281.667 159.833 C 281.850 159.735,282.000 159.583,282.000 159.494 C 282.000 159.406,282.131 159.189,282.292 159.012 C 282.691 158.572,282.828 158.389,283.546 157.333 C 284.569 155.829,284.738 155.594,284.957 155.363 C 285.072 155.242,285.167 155.039,285.167 154.913 C 285.167 154.787,285.269 154.623,285.394 154.550 C 285.519 154.477,285.747 154.192,285.901 153.917 C 286.054 153.642,286.362 153.117,286.584 152.750 C 286.806 152.383,287.102 151.845,287.242 151.553 C 287.381 151.261,287.566 150.979,287.653 150.925 C 287.741 150.871,288.008 150.399,288.247 149.876 C 288.486 149.353,288.779 148.811,288.896 148.671 C 289.014 148.531,289.248 148.042,289.416 147.583 C 289.584 147.125,289.893 146.487,290.102 146.167 C 290.311 145.846,290.717 144.983,291.004 144.250 C 291.291 143.517,291.932 142.086,292.429 141.072 C 292.927 140.057,293.333 139.115,293.333 138.980 C 293.333 138.844,293.399 138.662,293.480 138.575 C 293.560 138.488,293.778 138.004,293.964 137.500 C 294.149 136.996,294.466 136.171,294.668 135.667 C 294.870 135.162,295.133 134.487,295.252 134.167 C 295.372 133.846,295.805 132.871,296.215 132.000 C 296.624 131.129,297.685 128.579,298.572 126.333 C 299.459 124.087,300.293 122.014,300.426 121.725 C 300.558 121.436,300.667 121.119,300.667 121.021 C 300.667 120.923,300.813 120.521,300.992 120.129 C 301.171 119.737,301.782 118.217,302.350 116.750 C 302.919 115.283,303.523 113.778,303.692 113.406 C 303.861 113.033,304.000 112.641,304.000 112.535 C 304.000 112.429,304.146 112.021,304.325 111.629 C 304.504 111.237,305.114 109.717,305.682 108.250 C 306.249 106.783,306.853 105.265,307.023 104.877 C 307.194 104.488,307.333 104.096,307.333 104.006 C 307.333 103.916,307.479 103.521,307.658 103.129 C 307.836 102.737,308.297 101.592,308.681 100.583 C 309.066 99.575,309.520 98.432,309.690 98.043 C 309.861 97.655,310.000 97.263,310.000 97.173 C 310.000 97.083,310.147 96.688,310.327 96.296 C 310.506 95.904,311.113 94.383,311.674 92.917 C 312.235 91.450,312.834 89.912,313.005 89.500 C 313.275 88.851,313.828 87.426,315.780 82.364 C 316.004 81.784,316.305 80.922,316.449 80.447 C 316.701 79.616,317.262 78.056,317.748 76.833 C 317.875 76.512,318.326 75.350,318.749 74.250 C 319.172 73.150,319.586 72.100,319.667 71.917 C 319.749 71.733,320.014 71.058,320.257 70.417 C 320.500 69.775,321.098 68.237,321.586 67.000 C 322.075 65.762,322.675 64.225,322.920 63.583 C 323.783 61.328,325.373 57.242,325.676 56.500 C 326.941 53.408,329.333 47.093,329.333 46.848 C 329.333 46.757,329.641 45.873,330.017 44.883 C 330.393 43.893,330.884 42.596,331.109 42.000 C 331.334 41.404,331.584 40.767,331.666 40.583 C 331.821 40.236,332.977 37.264,333.741 35.250 C 333.985 34.608,334.252 33.933,334.336 33.750 C 334.419 33.567,334.759 32.704,335.092 31.833 C 336.089 29.224,337.505 25.606,337.669 25.250 C 337.754 25.067,338.076 24.242,338.385 23.417 C 338.695 22.592,339.286 21.017,339.700 19.917 C 340.113 18.817,340.655 17.279,340.904 16.500 C 341.153 15.721,341.502 14.765,341.678 14.377 C 341.855 13.988,342.000 13.572,342.000 13.452 C 342.000 13.332,342.068 13.162,342.150 13.075 C 342.233 12.988,342.414 12.578,342.551 12.165 C 342.810 11.390,343.871 8.633,344.251 7.750 C 344.369 7.475,344.666 6.725,344.911 6.083 C 345.874 3.558,345.639 3.876,348.649 1.014 L 349.715 0.000 341.302 0.000 C 336.675 0.000,332.839 0.050,332.778 0.111 M336.589 6.417 C 336.459 7.799,334.828 13.394,334.441 13.781 C 334.382 13.840,334.333 14.052,334.333 14.252 C 334.333 14.656,334.019 15.581,333.002 18.167 C 331.921 20.917,331.500 22.102,331.500 22.393 C 331.500 22.650,331.003 24.039,330.330 25.667 C 330.159 26.079,329.571 27.579,329.023 29.000 C 328.475 30.421,327.675 32.483,327.245 33.583 C 326.077 36.573,324.833 39.974,324.833 40.179 C 324.833 40.278,324.639 40.860,324.402 41.472 C 324.165 42.083,323.816 42.996,323.627 43.500 C 323.438 44.004,323.144 44.735,322.975 45.123 C 322.805 45.512,322.667 45.904,322.667 45.994 C 322.667 46.084,322.525 46.479,322.351 46.871 C 321.885 47.922,321.438 49.032,320.654 51.083 C 320.268 52.092,319.813 53.235,319.643 53.623 C 319.473 54.012,319.333 54.428,319.333 54.548 C 319.333 54.668,319.270 54.838,319.193 54.925 C 319.116 55.012,318.972 55.308,318.873 55.583 C 318.475 56.689,317.267 59.793,316.976 60.457 C 316.806 60.845,316.667 61.225,316.667 61.300 C 316.667 61.376,316.517 61.748,316.333 62.127 C 316.150 62.507,316.000 62.918,316.000 63.042 C 316.000 63.166,315.937 63.338,315.860 63.425 C 315.783 63.512,315.639 63.808,315.539 64.083 C 315.086 65.335,313.267 69.988,312.983 70.623 C 312.809 71.012,312.667 71.381,312.667 71.444 C 312.667 71.507,312.073 73.064,311.346 74.904 C 310.620 76.744,309.411 79.825,308.659 81.750 C 307.907 83.675,306.631 86.938,305.823 89.000 C 303.890 93.935,302.669 97.059,301.915 99.000 C 301.576 99.871,300.662 102.196,299.883 104.167 C 298.440 107.819,297.564 110.048,295.594 115.083 C 294.984 116.642,294.417 118.067,294.334 118.250 C 294.252 118.433,293.610 120.046,292.907 121.833 C 291.739 124.809,290.558 127.500,290.421 127.500 C 290.342 127.500,290.758 126.191,291.068 125.464 C 291.214 125.123,291.333 124.702,291.333 124.528 C 291.333 124.354,291.478 123.845,291.655 123.397 C 291.832 122.950,292.173 122.058,292.414 121.417 C 292.654 120.775,292.918 120.100,293.000 119.917 C 293.082 119.733,293.334 119.096,293.559 118.500 C 293.784 117.904,294.231 116.742,294.551 115.917 C 294.872 115.092,295.258 114.004,295.411 113.500 C 295.810 112.178,296.642 109.865,297.014 109.043 C 297.189 108.655,297.333 108.287,297.333 108.225 C 297.333 108.122,299.091 103.574,299.578 102.417 C 299.787 101.920,300.273 100.491,300.994 98.250 C 301.201 97.608,301.512 96.778,301.685 96.406 C 301.858 96.033,302.000 95.641,302.000 95.535 C 302.000 95.429,302.146 95.021,302.324 94.629 C 302.503 94.237,302.963 93.092,303.348 92.083 C 303.733 91.075,304.143 90.025,304.261 89.750 C 304.612 88.928,305.763 85.687,306.242 84.167 C 306.508 83.325,307.112 81.737,308.588 78.000 C 310.464 73.249,311.333 70.832,311.333 70.367 C 311.333 70.202,311.401 69.995,311.484 69.908 C 311.566 69.821,311.747 69.412,311.885 68.998 C 312.200 68.052,313.268 65.310,313.685 64.377 C 313.858 63.988,314.000 63.621,314.000 63.560 C 314.000 63.500,314.403 62.431,314.895 61.184 C 315.877 58.699,316.667 56.465,316.667 56.176 C 316.667 56.011,318.200 51.964,319.007 50.000 C 320.425 46.547,322.000 42.201,322.000 41.742 C 322.000 41.614,322.146 41.188,322.325 40.796 C 322.504 40.404,322.845 39.558,323.084 38.917 C 323.322 38.275,323.585 37.600,323.668 37.417 C 323.966 36.755,326.000 31.500,326.006 31.377 C 326.009 31.307,326.156 30.950,326.333 30.583 C 326.510 30.217,326.658 29.860,326.661 29.791 C 326.664 29.721,326.937 28.971,327.267 28.124 C 327.597 27.277,328.318 25.421,328.868 24.000 C 329.419 22.579,330.236 20.479,330.685 19.333 C 331.133 18.188,331.500 17.196,331.500 17.130 C 331.500 17.064,331.679 16.614,331.898 16.130 C 332.116 15.646,333.145 13.113,334.183 10.500 C 335.221 7.887,336.147 5.697,336.241 5.633 C 336.483 5.466,336.644 5.830,336.589 6.417 M198.958 75.013 C 198.798 75.107,198.667 75.278,198.667 75.394 C 198.667 75.509,198.523 75.902,198.347 76.266 C 198.050 76.881,197.896 77.847,197.765 79.917 C 197.737 80.375,197.665 81.125,197.606 81.583 C 197.548 82.042,197.460 83.054,197.411 83.833 C 197.322 85.237,197.248 85.951,197.088 86.917 C 197.043 87.192,196.901 88.054,196.774 88.833 C 196.646 89.612,196.462 90.449,196.365 90.691 C 196.267 90.934,196.218 91.162,196.255 91.199 C 196.291 91.236,196.204 91.637,196.060 92.091 C 195.916 92.545,195.776 93.104,195.748 93.333 C 195.721 93.563,195.503 94.267,195.266 94.899 C 195.028 95.532,194.833 96.187,194.833 96.356 C 194.833 96.663,194.244 98.288,193.648 99.623 C 193.475 100.012,193.333 100.385,193.333 100.453 C 193.333 100.574,192.826 101.920,192.406 102.917 C 192.290 103.192,191.993 103.942,191.746 104.583 C 191.499 105.225,191.199 105.975,191.079 106.250 C 190.959 106.525,190.660 107.275,190.413 107.917 C 189.957 109.104,189.298 110.548,189.007 111.000 C 188.919 111.138,188.615 111.813,188.333 112.500 C 188.051 113.188,187.746 113.862,187.656 114.000 C 187.566 114.138,187.340 114.587,187.155 115.000 C 186.970 115.412,186.488 116.425,186.084 117.250 C 185.680 118.075,185.193 119.125,185.002 119.583 C 184.811 120.042,184.568 120.567,184.461 120.750 C 184.039 121.473,183.344 122.926,183.339 123.094 C 183.336 123.191,183.183 123.581,183.000 123.961 C 182.817 124.340,182.667 124.719,182.667 124.803 C 182.667 124.887,182.520 125.141,182.341 125.369 C 182.162 125.597,181.371 127.425,180.583 129.433 C 179.796 131.441,179.083 133.233,178.999 133.417 C 178.915 133.600,178.588 134.425,178.273 135.250 C 177.957 136.075,177.426 137.450,177.093 138.306 C 176.759 139.162,176.444 140.100,176.393 140.389 C 176.341 140.679,176.168 141.329,176.007 141.833 C 175.616 143.057,175.361 144.221,175.240 145.333 C 175.185 145.837,175.113 146.438,175.080 146.667 C 174.532 150.467,174.724 158.027,175.409 159.579 C 175.532 159.857,175.797 160.946,175.999 162.000 C 177.001 167.231,179.096 172.550,181.836 176.822 C 182.681 178.139,183.000 178.434,183.000 177.899 C 183.000 177.330,184.298 175.201,185.275 174.168 C 187.038 172.304,189.292 171.224,191.787 171.048 C 192.546 170.994,193.167 170.926,193.167 170.895 C 193.167 170.865,192.914 170.445,192.605 169.962 C 190.240 166.260,187.718 157.785,188.500 156.167 C 188.567 156.029,188.629 154.679,188.638 153.167 C 188.653 150.645,188.724 149.428,188.935 148.083 C 189.214 146.295,189.307 145.655,189.394 144.917 C 189.437 144.550,189.554 144.037,189.654 143.778 C 189.754 143.518,189.794 143.238,189.743 143.156 C 189.693 143.074,189.732 142.855,189.831 142.670 C 189.930 142.485,190.041 142.053,190.077 141.709 C 190.113 141.365,190.265 140.792,190.416 140.435 C 190.567 140.079,190.695 139.554,190.700 139.269 C 190.706 138.983,190.766 138.675,190.833 138.583 C 191.052 138.286,191.656 136.451,191.577 136.323 C 191.535 136.255,191.726 135.648,192.002 134.975 C 192.278 134.301,192.553 133.451,192.613 133.085 C 192.673 132.720,192.886 132.018,193.086 131.526 L 193.450 130.631 193.818 132.107 C 194.021 132.919,194.262 133.846,194.355 134.167 C 194.540 134.812,194.819 135.946,194.889 136.333 C 194.913 136.471,195.031 136.921,195.152 137.333 C 195.272 137.746,195.483 138.496,195.620 139.000 C 195.758 139.504,196.050 140.494,196.269 141.201 C 196.487 141.907,196.667 142.567,196.667 142.667 C 196.667 142.767,196.817 143.160,197.000 143.539 C 197.183 143.919,197.333 144.387,197.333 144.579 C 197.333 144.772,197.479 145.215,197.657 145.564 C 197.835 145.914,198.031 146.436,198.092 146.725 C 198.331 147.858,200.141 151.183,200.894 151.875 C 202.262 153.130,202.896 151.621,202.234 148.688 C 202.118 148.172,201.975 147.337,201.917 146.833 C 201.859 146.329,201.784 145.729,201.750 145.500 C 201.353 142.809,201.353 136.342,201.751 130.833 C 201.780 130.421,201.849 129.183,201.904 128.083 C 201.959 126.983,202.051 125.596,202.109 125.000 C 202.167 124.404,202.234 123.542,202.258 123.083 C 202.282 122.625,202.347 121.763,202.402 121.167 C 202.522 119.884,202.644 118.253,202.757 116.417 C 202.803 115.683,202.872 114.858,202.910 114.583 C 203.009 113.888,203.134 112.244,203.252 110.083 C 203.308 109.075,203.391 107.800,203.438 107.250 C 203.530 106.180,203.597 105.041,203.747 102.000 C 203.855 99.821,203.868 91.508,203.765 90.750 C 203.727 90.475,203.614 89.313,203.513 88.167 C 203.301 85.760,203.045 83.704,202.838 82.750 C 202.758 82.383,202.606 81.633,202.500 81.083 C 202.288 79.982,202.207 79.693,201.572 77.764 C 200.776 75.344,199.926 74.450,198.958 75.013 M189.064 125.639 C 188.902 125.975,188.715 126.587,188.647 127.000 C 188.580 127.412,188.323 128.350,188.076 129.083 C 187.830 129.817,187.478 130.867,187.294 131.417 C 187.110 131.967,186.899 132.766,186.825 133.192 C 186.752 133.619,186.574 134.196,186.429 134.476 C 186.285 134.755,186.167 135.149,186.167 135.352 C 186.167 135.555,186.058 136.102,185.926 136.569 C 185.794 137.035,185.562 137.845,185.412 138.369 C 185.262 138.893,185.178 139.383,185.225 139.459 C 185.272 139.535,185.213 139.819,185.094 140.090 C 184.901 140.531,184.622 141.663,184.417 142.833 C 184.378 143.063,184.263 143.662,184.164 144.167 C 184.064 144.671,183.955 145.325,183.921 145.620 C 183.887 145.915,183.803 146.248,183.734 146.360 C 183.664 146.472,183.585 146.793,183.558 147.073 C 183.530 147.354,183.467 147.846,183.418 148.167 C 183.368 148.487,183.296 149.012,183.257 149.333 C 183.219 149.654,183.149 150.142,183.102 150.417 C 183.056 150.692,182.977 151.323,182.928 151.819 C 182.879 152.316,182.802 152.841,182.758 152.986 C 182.715 153.131,182.634 153.962,182.579 154.833 C 182.525 155.704,182.457 156.698,182.430 157.042 C 182.402 157.385,182.430 157.667,182.492 157.667 C 182.554 157.667,182.698 158.960,182.812 160.542 C 182.926 162.123,183.064 163.746,183.119 164.147 C 183.195 164.708,183.167 164.861,183.000 164.806 C 182.549 164.655,181.498 160.053,181.408 157.833 C 181.165 151.887,181.170 151.620,181.577 147.000 C 181.597 146.771,181.671 146.405,181.742 146.187 C 181.812 145.969,181.894 145.594,181.924 145.353 C 182.100 143.928,182.373 142.692,182.775 141.500 C 182.914 141.087,183.092 140.412,183.172 140.000 C 183.251 139.587,183.470 138.855,183.658 138.373 C 183.846 137.891,184.000 137.338,184.000 137.143 C 184.000 136.844,185.265 133.428,186.338 130.833 C 186.508 130.421,187.000 129.183,187.430 128.083 C 188.370 125.681,188.683 124.988,188.958 124.696 C 189.073 124.575,189.178 124.388,189.192 124.280 C 189.205 124.172,189.248 124.296,189.287 124.556 C 189.326 124.815,189.226 125.303,189.064 125.639 M196.655 158.736 C 196.826 158.941,197.500 159.216,197.500 159.080 C 197.500 159.049,197.267 158.908,196.983 158.767 C 196.593 158.572,196.513 158.564,196.655 158.736 M65.063 386.548 C 64.999 386.659,65.006 386.696,65.079 386.631 C 65.151 386.565,65.357 386.590,65.536 386.686 C 65.715 386.782,65.893 386.829,65.932 386.791 C 65.970 386.752,65.816 386.636,65.590 386.533 C 65.278 386.391,65.151 386.395,65.063 386.548 " stroke="none" fill="#040404" fill-rule="evenodd"></path></g></svg>